<svg width="206" height="157" viewBox="0 0 206 157" fill="none" xmlns="http://www.w3.org/2000/svg">
<path d="M204.442 2V154.85" stroke="#99EFD0" stroke-width="2.68158" stroke-linecap="round" stroke-linejoin="round" stroke-dasharray="0.89 17.88"/>
<path d="M163.885 2V154.85" stroke="#99EFD0" stroke-width="2.68158" stroke-linecap="round" stroke-linejoin="round" stroke-dasharray="0.89 17.88"/>
<path d="M123.327 2V154.85" stroke="#99EFD0" stroke-width="2.68158" stroke-linecap="round" stroke-linejoin="round" stroke-dasharray="0.89 17.88"/>
<path d="M82.7695 2V154.85" stroke="#99EFD0" stroke-width="2.68158" stroke-linecap="round" stroke-linejoin="round" stroke-dasharray="0.89 17.88"/>
<path d="M42.2118 2V154.85" stroke="#99EFD0" stroke-width="2.68158" stroke-linecap="round" stroke-linejoin="round" stroke-dasharray="0.89 17.88"/>
<path d="M1.65416 2.00006V154.85" stroke="#99EFD0" stroke-width="2.68158" stroke-linecap="round" stroke-linejoin="round" stroke-dasharray="0.89 17.88"/>
<path d="M71.5 125C91.6584 125 108 108.658 108 88.5C108 68.3416 91.6584 52 71.5 52C51.3416 52 35 68.3416 35 88.5C35 108.658 51.3416 125 71.5 125Z" fill="#99EFD0"/>
<path d="M108.978 44.1641H110.241V48.3027L113.643 44.1641H115.23L111.605 48.417L115.509 53H113.935L110.241 48.5947V53H108.978V44.1641ZM117.193 51.832C117.053 51.5908 116.941 51.3073 116.856 50.9814C116.776 50.6556 116.736 50.2303 116.736 49.7056C116.736 49.1808 116.848 48.6984 117.072 48.2583C117.301 47.814 117.597 47.45 117.961 47.1665C118.667 46.6206 119.546 46.3477 120.595 46.3477C121.141 46.3477 121.554 46.3604 121.833 46.3857C121.833 46.3857 122.038 46.4069 122.449 46.4492V53H121.306L121.255 52.2446C121.001 52.5832 120.614 52.835 120.094 53C119.895 53.0635 119.689 53.0952 119.478 53.0952C119.27 53.0952 119.065 53.0741 118.862 53.0317C118.659 52.9894 118.456 52.9196 118.253 52.8223C118.054 52.7249 117.863 52.5959 117.681 52.4351C117.499 52.27 117.337 52.069 117.193 51.832ZM121.179 47.3823C120.908 47.3485 120.637 47.3315 120.367 47.3315C120.1 47.3315 119.814 47.3802 119.51 47.4775C119.205 47.5706 118.945 47.7188 118.729 47.9219C118.28 48.3451 118.056 48.9904 118.056 49.8579C118.056 50.6789 118.249 51.2861 118.634 51.6797C118.926 51.9717 119.277 52.1177 119.687 52.1177C120.216 52.1177 120.652 51.9251 120.995 51.54C121.08 51.4427 121.141 51.356 121.179 51.2798V47.3823ZM127.16 51.9971C127.299 52.0479 127.511 52.0732 127.795 52.0732C128.078 52.0732 128.315 52.0394 128.505 51.9717V52.9873C128.417 53.0085 128.288 53.0212 128.118 53.0254L127.718 53.0381C127.629 53.0381 127.562 53.0381 127.515 53.0381C126.699 53.0381 126.095 52.7715 125.706 52.2383C125.393 51.8066 125.236 51.2354 125.236 50.5244V47.4204H124.297V46.8237L125.236 46.4492L125.541 44.8242H126.506V46.4492H128.537V47.4204H126.506V50.5181C126.506 51.3475 126.724 51.8405 127.16 51.9971ZM130.843 51.832C130.703 51.5908 130.591 51.3073 130.506 50.9814C130.426 50.6556 130.386 50.2303 130.386 49.7056C130.386 49.1808 130.498 48.6984 130.722 48.2583C130.951 47.814 131.247 47.45 131.611 47.1665C132.317 46.6206 133.196 46.3477 134.245 46.3477C134.791 46.3477 135.204 46.3604 135.483 46.3857C135.483 46.3857 135.688 46.4069 136.099 46.4492V53H134.956L134.905 52.2446C134.651 52.5832 134.264 52.835 133.744 53C133.545 53.0635 133.339 53.0952 133.128 53.0952C132.92 53.0952 132.715 53.0741 132.512 53.0317C132.309 52.9894 132.106 52.9196 131.903 52.8223C131.704 52.7249 131.513 52.5959 131.331 52.4351C131.149 52.27 130.987 52.069 130.843 51.832ZM134.829 47.3823C134.558 47.3485 134.287 47.3315 134.017 47.3315C133.75 47.3315 133.464 47.3802 133.16 47.4775C132.855 47.5706 132.595 47.7188 132.379 47.9219C131.93 48.3451 131.706 48.9904 131.706 49.8579C131.706 50.6789 131.899 51.2861 132.284 51.6797C132.576 51.9717 132.927 52.1177 133.337 52.1177C133.866 52.1177 134.302 51.9251 134.645 51.54C134.73 51.4427 134.791 51.356 134.829 51.2798V47.3823ZM139.82 55.5391H138.55V46.4492H139.693L139.743 47.1982C139.997 46.8597 140.387 46.6079 140.911 46.4429C141.114 46.3794 141.32 46.3477 141.527 46.3477C141.739 46.3477 141.946 46.3709 142.149 46.4175C142.352 46.4598 142.553 46.5317 142.752 46.6333C142.951 46.7306 143.141 46.8618 143.323 47.0269C143.505 47.1877 143.666 47.3887 143.806 47.6299C144.111 48.1504 144.263 48.7957 144.263 49.5659C144.263 50.7424 143.857 51.6416 143.044 52.2637C142.325 52.818 141.449 53.0952 140.416 53.0952H140.099C139.997 53.0952 139.904 53.0931 139.82 53.0889V55.5391ZM139.82 52.0605C139.938 52.0944 140.171 52.1113 140.518 52.1113C140.865 52.1113 141.191 52.0627 141.495 51.9653C141.8 51.868 142.058 51.7178 142.27 51.5146C142.718 51.083 142.943 50.4334 142.943 49.5659C142.943 48.7492 142.748 48.1462 142.359 47.7568C142.071 47.4691 141.72 47.3252 141.305 47.3252C140.784 47.3252 140.353 47.5177 140.01 47.9028C139.921 48.0002 139.858 48.0869 139.82 48.1631V52.0605ZM150.644 51.394V46.4492H151.913V53H150.771L150.656 52.3081C150.03 52.8371 149.338 53.1016 148.581 53.1016C147.777 53.1016 147.207 52.8794 146.873 52.4351C146.526 51.9823 146.353 51.2015 146.353 50.0928V46.4492H147.622V50.0293C147.622 50.8122 147.734 51.3454 147.958 51.6289C148.157 51.8828 148.536 52.0098 149.095 52.0098C149.658 52.0098 150.174 51.8045 150.644 51.394ZM154.561 43.5547H155.831V50.5181C155.831 51.356 156.021 51.849 156.402 51.9971C156.529 52.0479 156.665 52.0732 156.808 52.0732C156.952 52.0732 157.081 52.0563 157.196 52.0225V53L156.961 53.0254C156.885 53.0339 156.811 53.0381 156.739 53.0381C155.926 53.0381 155.34 52.7715 154.98 52.2383C154.701 51.8193 154.561 51.248 154.561 50.5244V43.5547ZM161.31 51.9971C161.45 52.0479 161.661 52.0732 161.945 52.0732C162.228 52.0732 162.465 52.0394 162.656 51.9717V52.9873C162.567 53.0085 162.438 53.0212 162.269 53.0254L161.869 53.0381C161.78 53.0381 161.712 53.0381 161.666 53.0381C160.849 53.0381 160.246 52.7715 159.857 52.2383C159.543 51.8066 159.387 51.2354 159.387 50.5244V47.4204H158.447V46.8237L159.387 46.4492L159.692 44.8242H160.656V46.4492H162.688V47.4204H160.656V50.5181C160.656 51.3475 160.874 51.8405 161.31 51.9971Z" fill="white"/>
<path d="M41.2842 22.5625H35.9648V20.3281H49.1426V22.5625H43.8232V38H41.2842V22.5625ZM52.4637 20.3281H63.8768V22.5371H55.0027V27.7422H61.7186V29.875H55.0027V35.7656H63.8768V38H52.4637V20.3281ZM67.9723 20.3281H70.5113V27.3105H78.8648V20.3281H81.4039V38H78.8648V29.5449H70.5113V38H67.9723V20.3281ZM85.6391 20.3281H97.0521V22.5371H88.1781V27.7422H94.8939V29.875H88.1781V35.7656H97.0521V38H85.6391V20.3281ZM105.477 22.5625H100.157V20.3281H113.335V22.5625H108.016V38H105.477V22.5625ZM126.724 36.7686C126.123 37.1917 125.353 37.526 124.413 37.7715C123.474 38.0085 122.323 38.127 120.96 38.127C119.606 38.127 118.239 38.0465 116.859 37.8857V35.4229C118.095 35.7021 119.339 35.8418 120.592 35.8418C121.844 35.8418 122.784 35.7741 123.41 35.6387C124.036 35.4948 124.54 35.3086 124.921 35.0801C125.623 34.6569 125.975 34.1068 125.975 33.4297C125.975 32.9049 125.839 32.4987 125.568 32.2109C125.137 31.7624 124.515 31.3519 123.702 30.9795L120.452 29.4941C119.335 28.9694 118.544 28.4827 118.078 28.0342C117.079 27.0693 116.58 25.9521 116.58 24.6826C116.58 23.3792 117.147 22.3255 118.281 21.5215C119.525 20.6413 121.294 20.2012 123.588 20.2012C125.069 20.2012 126.423 20.2604 127.65 20.3789V22.8037C126.609 22.5667 125.446 22.4482 124.159 22.4482C122.881 22.4482 121.95 22.516 121.366 22.6514C120.791 22.7783 120.338 22.9434 120.008 23.1465C119.407 23.5189 119.106 24.0098 119.106 24.6191C119.106 25.2116 119.297 25.7025 119.678 26.0918C120.016 26.4219 120.634 26.8027 121.531 27.2344L124.87 28.8213C125.979 29.346 126.753 29.8411 127.193 30.3066C127.642 30.7721 127.972 31.2419 128.184 31.7158C128.395 32.1813 128.501 32.7441 128.501 33.4043C128.501 34.056 128.357 34.6738 128.069 35.2578C127.782 35.8333 127.333 36.3369 126.724 36.7686ZM132.165 20.3281H143.578V22.5371H134.704V27.7422H141.42V29.875H134.704V35.7656H143.578V38H132.165V20.3281ZM139.262 13.917H142.232L138.576 18.5762H136.316L139.262 13.917ZM160.927 37.8223C159.954 38.0762 158.668 38.2031 157.068 38.2031C155.477 38.2031 154.11 38.0042 152.967 37.6064C151.833 37.2087 150.856 36.6204 150.035 35.8418C148.274 34.1999 147.394 31.9147 147.394 28.9863C147.394 27.0736 147.851 25.4232 148.765 24.0352C150.001 22.1478 151.901 20.946 154.465 20.4297C155.253 20.2773 156.217 20.2012 157.36 20.2012C158.503 20.2012 159.489 20.2562 160.318 20.3662V22.8037C159.59 22.6175 158.549 22.5244 157.195 22.5244C155.849 22.5244 154.745 22.6768 153.881 22.9814C153.018 23.2861 152.303 23.722 151.736 24.2891C150.602 25.3978 150.035 26.9635 150.035 28.9863C150.035 31.043 150.593 32.6891 151.711 33.9248C152.929 35.2705 154.669 35.9434 156.928 35.9434C157.453 35.9434 157.94 35.9222 158.388 35.8799V29.3672H160.927V37.8223Z" fill="white"/>
<path fill-rule="evenodd" clip-rule="evenodd" d="M79.5553 89.2245C78.9996 91.8463 80.6745 94.4222 83.2963 94.9778C85.9181 95.5335 88.4939 93.8586 89.0496 91.2369C89.6053 88.6151 87.9304 86.0392 85.3086 85.4835C82.6868 84.9279 80.111 86.6027 79.5553 89.2245ZM82.1426 77.0176C81.5869 79.6393 83.2618 82.2152 85.8836 82.7709C88.5054 83.3266 91.0812 81.6517 91.6369 79.0299C92.1926 76.4081 90.5177 73.8323 87.8959 73.2766C85.2741 72.7209 82.6983 74.3958 82.1426 77.0176ZM69.9356 74.4303C69.3799 77.0521 71.0548 79.6279 73.6766 80.1836C76.2984 80.7393 78.8742 79.0644 79.4299 76.4426C79.9856 73.8208 78.3107 71.245 75.6889 70.6893C73.0672 70.1336 70.4913 71.8085 69.9356 74.4303ZM80.6132 107.637C77.9914 107.081 76.3165 104.505 76.8722 101.884C77.4279 99.2618 80.0037 97.5869 82.6255 98.1426C85.2473 98.6983 86.9222 101.274 86.3665 103.896C85.8108 106.518 83.2349 108.193 80.6132 107.637ZM70.8977 93.2948C68.2759 92.7391 66.601 90.1632 67.1567 87.5414C67.7124 84.9197 70.2882 83.2448 72.91 83.8005C75.5318 84.3562 77.2067 86.932 76.651 89.5538C76.0953 92.1756 73.5194 93.8505 70.8977 93.2948ZM57.2766 71.7472C56.7209 74.3689 58.3958 76.9448 61.0175 77.5005C63.6393 78.0562 66.2152 76.3813 66.7709 73.7595C67.3266 71.1377 65.6517 68.5619 63.0299 68.0062C60.4081 67.4505 57.8323 69.1254 57.2766 71.7472ZM55.7471 102.367C53.1254 101.811 51.4505 99.235 52.0062 96.6132C52.5618 93.9914 55.1377 92.3165 57.7595 92.8722C60.3813 93.4279 62.0561 96.0037 61.5005 98.6255C60.9448 101.247 58.3689 102.922 55.7471 102.367Z" fill="white"/>
</svg>
