<svg width="37" height="40" viewBox="0 0 37 40" fill="none" xmlns="http://www.w3.org/2000/svg">
<path opacity="0.3" fill-rule="evenodd" clip-rule="evenodd" d="M5.69898 24.3861C4.94204 25.1906 4.94203 26.4948 5.69898 27.2992L11.6788 33.6541C12.4358 34.4586 13.663 34.4586 14.42 33.6541L20.3998 27.2992C21.1567 26.4948 21.1567 25.1906 20.3998 24.3861L18.5 22.3672L14.8248 26.2729C14.4463 26.6751 13.8327 26.6751 13.4542 26.2729L12.6445 25.4124C12.2661 25.0102 12.2661 24.3581 12.6445 23.9559L16.3197 20.0502L14.42 18.0312C13.663 17.2268 12.4358 17.2268 11.6788 18.0312L5.69898 24.3861Z" fill="#99EFD0"/>
<path fill-rule="evenodd" clip-rule="evenodd" d="M16.6002 12.8012C15.8433 13.6056 15.8432 14.9098 16.6002 15.7143L18.5 17.7332L22.1752 13.8275C22.5537 13.4253 23.1673 13.4253 23.5458 13.8275L24.3554 14.688C24.7339 15.0902 24.7339 15.7423 24.3554 16.1445L20.6802 20.0502L22.58 22.0692C23.337 22.8736 24.5642 22.8736 25.3212 22.0692L31.301 15.7143C32.058 14.9098 32.058 13.6056 31.301 12.8012L25.3212 6.44628C24.5642 5.64186 23.337 5.64185 22.58 6.44628L16.6002 12.8012Z" fill="#99EFD0"/>
</svg>
