<svg width="37" height="36" viewBox="0 0 37 36" fill="none" xmlns="http://www.w3.org/2000/svg">
<path opacity="0.3" fill-rule="evenodd" clip-rule="evenodd" d="M11.5713 28.3938L9.63148 30.7023C5.83177 27.5875 3.58878 22.9731 3.58878 18C3.58878 13.0339 5.82553 8.42518 9.61624 5.3103L11.5588 7.61653C8.45456 10.1673 6.62616 13.9346 6.62616 18C6.62616 22.0711 8.45967 25.843 11.5713 28.3938ZM25.9801 28.3938L27.9199 30.7023C31.7196 27.5875 33.9626 22.9731 33.9626 18C33.9626 13.0339 31.7258 8.42518 27.9351 5.3103L25.9926 7.61653C29.0968 10.1673 30.9252 13.9346 30.9252 18C30.9252 22.0711 29.0917 25.843 25.9801 28.3938ZM22.0842 23.7899L24.0165 26.1045C26.4494 24.123 27.8878 21.1761 27.8878 18C27.8878 14.8344 26.4589 11.8961 24.0396 9.91448L22.1007 12.2237C23.8314 13.6413 24.8505 15.7369 24.8505 18C24.8505 20.2707 23.8246 22.3724 22.0842 23.7899ZM13.5348 26.1045L15.4672 23.7899C13.7268 22.3724 12.7009 20.2707 12.7009 18C12.7009 15.7369 13.72 13.6413 15.4507 12.2237L13.5117 9.91448C11.0925 11.8961 9.66354 14.8344 9.66354 18C9.66354 21.1761 11.102 24.123 13.5348 26.1045Z" fill="#D1C941"/>
<path fill-rule="evenodd" clip-rule="evenodd" d="M18.7757 21C20.4532 21 21.8131 19.6569 21.8131 18C21.8131 16.3431 20.4532 15 18.7757 15C17.0982 15 15.7383 16.3431 15.7383 18C15.7383 19.6569 17.0982 21 18.7757 21Z" fill="#D1C941"/>
</svg>
